<svg width="129" height="138" viewBox="0 0 129 138" fill="none" xmlns="http://www.w3.org/2000/svg">
<path d="M113.063 101.111C106.301 97.3121 103.356 91.6737 103.282 84.4811C103.189 75.4883 103.185 66.4928 103.295 57.5004C103.34 53.8176 102.407 51.2719 99.098 48.8503C87.101 40.0695 75.4782 30.7776 63.563 21.5615C50.4132 31.175 37.3189 40.595 24.4766 50.3469C23.014 51.4575 22.4037 54.4173 22.3566 56.5409C22.1387 66.3626 22.2806 76.1919 22.2532 86.0184C22.2267 95.4969 12.6653 102.549 5.19524 103.711C1.5873 104.273 1.20762 101.959 1.22639 99.0865C1.30589 86.9288 1.3834 74.7684 1.20477 62.6127C1.12389 57.1094 0.443371 51.6149 0 45.6467C15.3716 34.4559 31.2823 22.8959 47.1633 11.2953C51.4614 8.15577 55.671 4.89522 59.9187 1.68676C62.7261 -0.433831 64.9431 -0.76686 68.145 1.91697C77.1899 9.4983 86.7262 16.4923 96.05 23.742C106.511 31.8761 116.952 40.0366 128.193 48.8031C122.061 51.9033 123.275 57.1398 123.267 62.0024C123.246 74.1607 123.26 86.319 123.26 98.4773C123.26 100.11 123.26 101.743 123.26 104.242C119.491 103.147 116.424 102.257 113.063 101.111Z" fill="#EA580C"/>
<path d="M66.7754 127.729C63.3109 127.963 59.3006 129.098 57.2339 127.582C55.2413 126.121 55.2556 121.923 53.2603 118.9C53.2603 122.054 53.2621 125.209 53.26 128.363C53.2563 133.75 50.7445 137.187 46.5244 137.582C43.1364 137.899 38.9053 133.616 38.3302 129.135C38.1416 127.666 38.3005 126.153 38.3005 125.779C35.7891 126.733 33.1841 128.37 30.4526 128.619C25.4989 129.07 23.1705 126.712 23.3634 121.587C23.4871 118.3 22.5492 116.519 19.4596 115.324C14.3641 113.353 13.6731 109.121 14.5586 103.975C17.1582 103.975 19.7675 103.975 22.7375 103.975C23.6431 100.668 24.2462 97.5005 25.3705 94.5299C29.9846 82.3385 40.0636 77.0053 51.7738 73.7061C53.1363 73.3223 54.5618 72.3191 55.4377 71.1969C59.2907 66.2607 64.3087 66.2884 68.1565 71.2596C69.0177 72.3722 70.4668 73.2881 71.8271 73.7144C81.2205 76.6586 90.0781 80.5264 95.2805 89.452C97.7593 93.7048 99.2521 98.5322 101.428 103.656C103.593 103.656 106.555 103.656 109.435 103.656C111.372 111.337 108.422 115.704 100.555 117.046C99.4984 121.108 102.208 126.967 95.7694 128.684C88.1004 130.73 85.9327 125.54 84.2604 119.64C84.2604 122.629 84.1026 125.628 84.2977 128.605C84.5833 132.96 83.5392 136.229 78.5602 136.739C73.5799 137.249 70.1624 134.519 69.3346 129.308C69.1031 127.851 69.2993 126.326 69.2993 124.053C68.289 125.608 67.6842 126.54 66.7754 127.729ZM48.7766 103.756C61.5088 103.756 74.241 103.756 87.027 103.756C85.2948 88.3907 67.2885 82.1786 57.6967 83.8203C45.5423 85.9006 35.7446 95.2747 36.892 103.756C40.4972 103.756 44.1417 103.756 48.7766 103.756Z" fill="#EA580C"/>
</svg>
