<svg width="43" height="30" viewBox="0 0 43 30" fill="none" xmlns="http://www.w3.org/2000/svg">
<path fill-rule="evenodd" clip-rule="evenodd" d="M20.4354 21.5089C20.0291 21.5547 19.6206 21.5776 19.2118 21.5775H12.8571V26.7857C12.8571 26.7857 11.9936 26.6111 10.7143 26.1182C7.05643 24.7114 0 20.7107 0 10.7893C0 4.83214 4.83 0 10.7893 0H19.2107C24.4093 0 28.7496 3.67607 29.7718 8.57143H34.2268C36.5158 8.57171 38.7109 9.48122 40.3294 11.0999C41.9479 12.7186 42.8571 14.9138 42.8571 17.2029C42.8571 25.0018 36.6128 28.2279 33.2143 29.4054C31.9446 29.8457 31.0714 30 31.0714 30V25.8332H27.9171C26.3998 25.8345 24.909 25.4354 23.5954 24.6761C22.2817 23.9168 21.1917 22.8243 20.4354 21.5089ZM10.7143 19.4346V23.8007C9.64667 23.3325 8.63111 22.7537 7.68428 22.0736C4.90928 20.0668 2.14286 16.665 2.14286 10.7882C2.14314 8.49522 3.05423 6.29625 4.67572 4.67496C6.2972 3.05367 8.49629 2.14286 10.7893 2.14286H19.2107C21.4161 2.14289 23.5382 2.98567 25.1427 4.49876C26.7472 6.01185 27.7129 8.08087 27.8421 10.2825C27.7656 11.7658 27.3831 13.2173 26.7186 14.5456C26.054 15.8739 25.1219 17.0504 23.9807 18.0011C22.5671 18.9384 20.908 19.4371 19.2118 19.4346H10.7143ZM25.2589 19.7239C24.5214 20.3282 23.7194 20.8492 22.8675 21.2775C23.4753 22.0316 24.2444 22.6398 25.1183 23.0574C25.9922 23.475 26.9486 23.6913 27.9171 23.6904H33.2143V27.12C34.1218 26.7638 34.9945 26.3244 35.8211 25.8075C38.3571 24.2057 40.7143 21.6043 40.7143 17.2029C40.7143 15.4822 40.0308 13.8319 38.8142 12.6151C37.5976 11.3983 35.9475 10.7146 34.2268 10.7143H30V10.7893C30 14.5061 28.1196 17.7836 25.2589 19.7239Z" fill="black"/>
</svg>
