<svg width="30" height="30" viewBox="0 0 30 30" fill="none" xmlns="http://www.w3.org/2000/svg">
<path d="M24.2491 23.6H4.73353M14.4913 23.6V15.5M18.6732 23.6V18.2M10.3094 23.6V18.2M24.2491 29V14.5955C24.7667 14.4128 25.242 14.1329 25.6476 13.7719C26.0532 13.4108 26.3812 12.9757 26.6127 12.4916C26.8442 12.0075 26.9747 11.4838 26.9967 10.9507C27.0187 10.4176 26.9317 9.8855 26.7408 9.38503C26.5498 8.88456 26.2587 8.42553 25.8841 8.03431C25.5095 7.64309 25.0588 7.32738 24.5579 7.10531C24.057 6.88324 23.5157 6.75917 22.9651 6.74024C22.4146 6.72131 21.8656 6.80789 21.3496 6.995C20.8339 4.5299 17.9205 2 14.4913 2C11.0621 2 8.14875 4.5299 7.63298 6.995C6.59227 6.62264 5.44144 6.66591 4.43367 7.11529C3.4259 7.56467 2.64373 8.38336 2.25924 9.39125C1.87475 10.3991 1.91943 11.5137 2.38345 12.4897C2.84747 13.4656 3.69282 14.2231 4.73353 14.5955V29H24.2491Z" stroke="black" stroke-width="2"/>
</svg>
