<svg width="30" height="30" viewBox="0 0 30 30" fill="none" xmlns="http://www.w3.org/2000/svg">
<g clip-path="url(#clip0_3206_25306)">
<path d="M15.4011 16.3442C16.9468 16.3442 18.4291 15.7302 19.5221 14.6373C20.615 13.5443 21.229 12.062 21.229 10.5163C21.229 8.97064 20.615 7.48829 19.5221 6.39535C18.4291 5.3024 16.9468 4.68839 15.4011 4.68839C13.8555 4.68839 12.3731 5.3024 11.2802 6.39535C10.1872 7.48829 9.57321 8.97064 9.57321 10.5163C9.57321 12.062 10.1872 13.5443 11.2802 14.6373C12.3731 15.7302 13.8555 16.3442 15.4011 16.3442V16.3442ZM19.2864 10.5163C19.2864 11.5467 18.877 12.535 18.1484 13.2636C17.4198 13.9922 16.4316 14.4016 15.4011 14.4016C14.3707 14.4016 13.3824 13.9922 12.6538 13.2636C11.9252 12.535 11.5158 11.5467 11.5158 10.5163C11.5158 9.48586 11.9252 8.49763 12.6538 7.769C13.3824 7.04037 14.3707 6.63103 15.4011 6.63103C16.4316 6.63103 17.4198 7.04037 18.1484 7.769C18.877 8.49763 19.2864 9.48586 19.2864 10.5163V10.5163ZM27.0569 26.0574C27.0569 28 25.1143 28 25.1143 28H5.68794C5.68794 28 3.7453 28 3.7453 26.0574C3.7453 24.1148 5.68794 18.2868 15.4011 18.2868C25.1143 18.2868 27.0569 24.1148 27.0569 26.0574ZM25.1143 26.0496C25.1124 25.5717 24.8151 24.1342 23.498 22.8171C22.2314 21.5505 19.8478 20.2295 15.4011 20.2295C10.9525 20.2295 8.57081 21.5505 7.30421 22.8171C5.9871 24.1342 5.69182 25.5717 5.68794 26.0496H25.1143Z" fill="black"/>
<path d="M1.45569 13.8604C0.65186 14.2396 0.284445 15.15 0.635381 15.8939C0.918671 16.4944 1.84577 17.7995 5.03301 18.0572C5.08998 18.0616 5.14792 18.0507 5.2005 18.0259C5.25307 18.0011 5.29827 17.9633 5.33114 17.9166C7.15905 15.2929 6.74145 13.7475 6.45816 13.147C6.10722 12.4031 5.17092 12.1077 4.36708 12.4869C3.56325 12.8661 3.29647 13.9899 3.29647 13.9899C3.29647 13.9899 2.25953 13.4811 1.45569 13.8604Z" stroke="black" stroke-width="0.932862" stroke-linecap="round" stroke-linejoin="round"/>
<path d="M25.7378 6.22702C26.2882 5.67867 27.1009 5.49293 27.6729 5.03169C28.2766 4.54903 28.3529 3.35049 27.1253 3.00399C26.3212 2.77703 25.7569 3.26574 25.4501 3.71577L24.362 2.85683C24.9817 1.95344 26.1422 1.35455 27.4792 1.73194C28.5974 2.04755 29.2218 2.76549 29.4346 3.50394C29.6155 4.13718 29.526 5.20037 28.8004 5.80556C27.9952 6.47435 27.3765 6.57311 26.9306 7.02439C26.7508 7.20651 26.6635 7.33374 26.4676 8.02771L25.0926 7.63958C25.191 7.2725 25.302 6.66089 25.7378 6.22702ZM26.1856 9.97314C26.0401 10.4889 25.4927 10.7901 24.9693 10.6423C24.446 10.4946 24.1368 9.95172 24.2824 9.43594C24.428 8.92015 24.9754 8.61901 25.4987 8.76674C26.0221 8.91447 26.3312 9.45735 26.1856 9.97314Z" fill="black"/>
</g>
<defs>
<clipPath id="clip0_3206_25306">
<rect width="30" height="30" fill="white"/>
</clipPath>
</defs>
</svg>
