<svg width="36" height="32" viewBox="0 0 36 32" fill="none" xmlns="http://www.w3.org/2000/svg">
<g clip-path="url(#clip0_3253_20176)">
<path d="M6.19727 21.216V26.1235C7.70308 27.9618 9.60138 29.4431 11.7542 30.4596C13.907 31.4761 16.2603 32.0023 18.643 32C24.2024 32 29.1036 29.1891 31.9887 24.9178V18.039C31.0013 24.4941 25.402 29.44 18.643 29.44C13.045 29.44 8.24284 26.048 6.19727 21.216ZM29.6101 8.16129V5.95713C29.6063 5.47101 29.6863 4.98784 29.8467 4.52865C26.8498 1.61991 22.8284 -0.00557508 18.643 1.75695e-05C14.8975 -0.00551702 11.2687 1.2967 8.38812 3.68001L8.39455 3.75809L8.39584 3.79265V7.24865C9.662 5.77627 11.2337 4.59466 13.0028 3.78523C14.7718 2.9758 16.6961 2.55779 18.643 2.56002C23.161 2.56002 27.1596 4.76929 29.6101 8.16129Z" fill="black"/>
<path d="M28.9286 16C28.9286 18.7158 27.8449 21.3204 25.916 23.2408C23.987 25.1611 21.3708 26.24 18.6429 26.24C15.9149 26.24 13.2987 25.1611 11.3698 23.2408C9.44081 21.3204 8.35714 18.7158 8.35714 16C8.35714 13.2842 9.44081 10.6796 11.3698 8.75924C13.2987 6.83887 15.9149 5.76001 18.6429 5.76001C21.3708 5.76001 23.987 6.83887 25.916 8.75924C27.8449 10.6796 28.9286 13.2842 28.9286 16ZM18.6429 24.96C19.8248 24.96 20.9951 24.7282 22.087 24.278C23.1789 23.8277 24.1711 23.1677 25.0068 22.3357C25.8425 21.5037 26.5055 20.5159 26.9578 19.4288C27.4101 18.3418 27.6429 17.1766 27.6429 16C27.6429 14.8234 27.4101 13.6582 26.9578 12.5712C26.5055 11.4841 25.8425 10.4963 25.0068 9.66433C24.1711 8.83232 23.1789 8.17233 22.087 7.72205C20.9951 7.27177 19.8248 7.04001 18.6429 7.04001C16.2559 7.04001 13.9667 7.98401 12.2789 9.66433C10.5911 11.3447 9.64286 13.6237 9.64286 16C9.64286 18.3763 10.5911 20.6554 12.2789 22.3357C13.9667 24.016 16.2559 24.96 18.6429 24.96ZM35.9871 5.04321C35.9871 3.89121 35.0486 2.95681 33.8914 2.95681C32.22 2.95681 30.8829 4.30081 30.8957 5.95201V13.056C30.8957 14.6598 31.8291 16.096 33.2743 16.7462V27.776C33.2743 28.4416 33.8143 28.9792 34.4829 28.9792H34.7786C35.4471 28.9792 35.9871 28.4416 35.9871 27.776V5.04321ZM6.19714 2.95681C5.96527 2.95681 5.74289 3.04852 5.57893 3.21175C5.41497 3.37498 5.32286 3.59637 5.32286 3.82721V7.27041C5.32286 7.52641 5.11714 7.71841 4.87286 7.71841C4.61571 7.71841 4.42286 7.51361 4.42286 7.27041V3.86561C4.42286 3.39201 4.05 2.96961 3.57429 2.95681C3.07286 2.94401 2.66143 3.34081 2.66143 3.82721V7.27041C2.66143 7.52641 2.45571 7.71841 2.21143 7.71841C1.95429 7.71841 1.76143 7.51361 1.76143 7.27041V3.86561C1.76143 3.39201 1.38857 2.96961 0.912857 2.95681C0.411429 2.94401 0 3.34081 0 3.82721V9.68961C0 10.8442 0.561857 11.8746 1.42586 12.5171C2.19857 12.951 2.19857 14.9376 2.19857 14.9376V27.7632C2.19857 28.4288 2.73857 28.9664 3.40714 28.9664H3.70286C4.37143 28.9664 4.91143 28.4288 4.91143 27.7632V14.9376C4.91143 14.9376 4.91143 13.0291 5.68414 12.5171C6.12644 12.1888 6.48565 11.7622 6.73319 11.2714C6.98073 10.7805 7.10975 10.2389 7.11 9.68961V3.82721C7.09698 3.59397 6.99548 3.37435 6.82601 3.21276C6.65655 3.05118 6.43177 2.9597 6.19714 2.95681Z" fill="black"/>
<path d="M15.8128 14.3996C14.8906 14.9296 14.5422 16.0481 15.0349 16.8977C15.4326 17.5835 16.6688 19.0432 20.4997 19.0352C20.5682 19.0347 20.6363 19.0162 20.6966 18.9815C20.7569 18.9468 20.8071 18.8974 20.8417 18.8386C22.7642 15.5397 22.1125 13.744 21.7147 13.0582C21.222 12.2086 20.0749 11.9498 19.1527 12.4798C18.2306 13.0099 18.0234 14.372 18.0234 14.372C18.0234 14.372 16.7349 13.8695 15.8128 14.3996Z" stroke="black" stroke-width="0.932862" stroke-linecap="round" stroke-linejoin="round"/>
</g>
<defs>
<clipPath id="clip0_3253_20176">
<rect width="36" height="32" fill="white"/>
</clipPath>
</defs>
</svg>
