<svg width="35" height="39" viewBox="0 0 35 39" fill="none" xmlns="http://www.w3.org/2000/svg">
<path d="M4.98513 3.20167C3.96444 3.79096 3.57875 5.03446 4.1241 5.97904C4.56433 6.74154 5.93263 8.36448 10.1729 8.35554C10.2487 8.35504 10.324 8.33439 10.3908 8.29585C10.4576 8.2573 10.5131 8.20234 10.5514 8.13698C12.6793 4.46927 11.958 2.47282 11.5177 1.71032C10.9724 0.765741 9.70263 0.478011 8.68194 1.06731C7.66125 1.6566 7.43195 3.17097 7.43195 3.17097C7.43195 3.17097 6.00582 2.61237 4.98513 3.20167Z" stroke="black" stroke-width="0.932862" stroke-linecap="round" stroke-linejoin="round"/>
<path fill-rule="evenodd" clip-rule="evenodd" d="M17.3788 17.0869L25.7032 8.74334L25.684 8.72416L26.5471 7.88022L27.8898 6.55676C28.677 5.78106 29.7383 5.3469 30.8435 5.34839C31.943 5.3478 32.9979 5.7822 33.7782 6.55676C34.5606 7.34069 35 8.403 35 9.51056C35 10.6181 34.5606 11.6804 33.7782 12.4644L33.2987 12.9439L32.4355 13.7878L24.1112 22.1505L22.2699 23.9918L16.2472 26.9265C15.8581 27.1221 15.4172 27.1901 14.9872 27.1208C14.5572 27.0514 14.16 26.8484 13.8521 26.5404C13.5441 26.2325 13.341 25.8353 13.2717 25.4053C13.2024 24.9753 13.2704 24.5344 13.466 24.1453L16.3814 18.0843L17.3788 17.0869ZM17.3788 19.2373L14.9872 25.4053L21.1685 22.9812L17.3788 19.2373ZM27.8898 8.74334L18.2803 18.0843L22.2699 22.1505L31.9944 12.5616L27.8898 8.74334Z" fill="black"/>
<path d="M26.5306 24.232H28.7555L28.7747 36.4116C28.785 36.7164 28.735 37.0203 28.6278 37.3058C28.5205 37.5913 28.358 37.8528 28.1496 38.0755C27.9412 38.2982 27.6909 38.4776 27.4131 38.6035C27.1353 38.7294 26.8354 38.7992 26.5306 38.8092H2.24807C1.94324 38.7992 1.64336 38.7294 1.36556 38.6035C1.08776 38.4776 0.837496 38.2982 0.629078 38.0755C0.42066 37.8528 0.258174 37.5913 0.150911 37.3058C0.0436477 37.0203 -0.00628993 36.7164 0.00395346 36.4116V16.5214C-0.014136 16.2119 0.0299787 15.9019 0.133693 15.6097C0.237406 15.3175 0.398617 15.049 0.607804 14.8202C0.816991 14.5913 1.06991 14.4067 1.35164 14.2772C1.63336 14.1477 1.93817 14.076 2.24807 14.0663H14.3893V16.5214H2.24807V36.4116H26.5306V24.232Z" fill="black"/>
</svg>
